<svg width="62" height="61" viewBox="0 0 62 61" fill="none" xmlns="http://www.w3.org/2000/svg">
<path d="M23.1925 46.7603C23.1925 46.7603 20.9207 48.0823 24.8114 48.5284C29.5255 49.0669 31.9346 48.9897 37.1281 48.008C37.1281 48.008 38.4963 48.8634 40.4036 49.6049C28.7568 54.5945 14.0458 49.3157 23.1925 46.7603ZM21.7685 40.2481C21.7685 40.2481 19.2199 42.1348 23.1139 42.538C28.1497 43.0579 32.1257 43.1003 39.0091 41.7755C39.0091 41.7755 39.9589 42.7405 41.4548 43.2676C27.3762 47.3851 11.6954 43.5917 21.7685 40.2481Z" fill="#0074BD"/>
<path d="M33.765 29.1995C36.6363 32.5044 33.0121 35.4758 33.0121 35.4758C33.0121 35.4758 40.2982 31.7152 36.9527 27.0039C33.827 22.6124 31.4308 20.4312 44.4038 12.9072C44.4038 12.9077 24.0398 17.9921 33.765 29.1995Z" fill="#EA2D2E"/>
<path d="M49.168 51.5779C49.168 51.5779 50.8498 52.9647 47.3151 54.0365C40.5946 56.0724 19.338 56.6862 13.4344 54.118C11.3132 53.1944 15.2925 51.9139 16.5444 51.6437C17.8497 51.3611 18.5951 51.4125 18.5951 51.4125C16.2346 49.7508 3.33886 54.677 12.0457 56.09C35.7885 59.9387 55.3256 54.3567 49.168 51.5779ZM24.2862 33.4995C24.2862 33.4995 13.4749 36.0677 20.4579 37.0013C23.4069 37.3959 29.2829 37.3053 34.7601 36.8459C39.235 36.4699 43.7256 35.6669 43.7256 35.6669C43.7256 35.6669 42.1492 36.3431 41.0073 37.1218C30.0264 40.0103 8.81837 38.665 14.9246 35.7122C20.0867 33.2155 24.2862 33.4995 24.2862 33.4995ZM43.6808 44.3399C54.8424 38.5415 49.6812 32.9691 46.0789 33.7197C45.1982 33.9031 44.8031 34.0628 44.8031 34.0628C44.8031 34.0628 45.131 33.5486 45.7563 33.3275C52.8823 30.8231 58.3618 40.7156 43.4578 44.6339C43.4578 44.6329 43.6289 44.4781 43.6808 44.3399Z" fill="#0074BD"/>
<path d="M36.9527 0.756256C36.9527 0.756256 43.1328 6.94013 31.0896 16.4461C21.4315 24.074 28.8874 28.4221 31.0862 33.3922C25.448 28.3059 21.3124 23.8276 24.0865 19.6601C28.1601 13.5439 39.4456 10.5773 36.9527 0.756256Z" fill="#EA2D2E"/>
<path d="M25.3832 60.0569C36.0944 60.7417 52.5473 59.6756 52.9366 54.6069C52.9366 54.6069 52.1879 56.5284 44.0835 58.0529C34.9402 59.7743 23.6609 59.5736 16.9733 58.4694C16.9733 58.4699 18.3434 59.6041 25.3832 60.0569Z" fill="#0074BD"/>
</svg>
