<svg width="61" height="61" viewBox="0 0 61 61" fill="none" xmlns="http://www.w3.org/2000/svg">
<path d="M44.706 43.8971C45.0801 40.7837 44.9681 40.3267 47.287 40.8314L47.8756 40.8829C49.6589 40.9639 51.9916 40.596 53.3622 39.9593C56.3126 38.5901 58.0616 36.305 55.1532 36.905C48.5175 38.2742 48.0614 36.0272 48.0614 36.0272C55.0683 25.6309 57.9973 12.4335 55.4686 9.20288C48.5728 0.391719 36.6363 4.5583 36.4366 4.66601L36.3728 4.67792C35.0618 4.4058 33.5944 4.2433 31.946 4.21661C28.9432 4.16705 26.6647 5.00389 24.9362 6.31444C24.9362 6.31444 3.642 -2.4586 4.63277 17.3473C4.84342 21.5606 10.6718 49.2284 17.6239 40.8714C20.1649 37.8157 22.6201 35.2318 22.6201 35.2318C23.8392 36.0415 25.2994 36.4551 26.8301 36.3064L26.9488 36.2054C26.9116 36.5847 26.9278 36.956 26.9959 37.3954C25.2055 39.3965 25.7316 39.7477 22.1512 40.4844C18.5284 41.2307 20.6567 42.5599 22.0459 42.9073C23.7305 43.3286 27.6274 43.9252 30.2609 40.2395L30.156 40.6598C30.8585 41.2222 30.8113 44.6996 30.9104 47.184C31.01 49.6688 31.1764 51.9872 31.6829 53.3545C32.1895 54.7218 32.7871 58.2421 37.4927 57.2337C41.4253 56.3931 44.4319 55.1802 44.706 43.8971Z" fill="black"/>
<path d="M35.9605 59.6923C33.8793 59.6923 32.524 58.8874 31.701 58.1101C30.4586 56.9378 29.9658 55.4276 29.6713 54.5254L29.544 54.149C28.9512 52.5487 28.7501 50.2445 28.6309 47.2774C28.6128 46.8318 28.6004 46.3729 28.5866 45.8863C28.5766 45.5303 28.5642 45.0838 28.5461 44.6168C27.7963 44.9743 27.0005 45.2257 26.1814 45.364C24.7141 45.6147 23.1367 45.5337 21.492 45.1224C20.3316 44.8322 19.1259 44.2307 18.4387 43.3019C16.4357 45.0561 14.5252 44.8183 13.4844 44.4709C11.6482 43.8585 10.005 42.1377 8.46043 39.2111C7.36005 37.1261 6.29589 34.4097 5.29701 31.1367C3.55756 25.437 2.45241 19.4338 2.35424 17.4627C2.04543 11.2936 3.70625 6.88158 7.28952 4.35056C12.942 0.357916 21.5063 2.70594 24.6288 3.77201C26.7266 2.50769 29.1947 1.89245 31.9836 1.93677C33.4814 1.96107 34.9077 2.0926 36.2326 2.32898C37.6146 1.89435 40.3444 1.27053 43.4692 1.30961C49.2265 1.37824 53.9974 3.62189 57.2652 7.79801C59.5975 10.7775 58.4442 17.0343 57.5497 20.4989C56.2906 25.3722 54.0846 30.5553 51.3749 35.0674C52.1107 35.0726 53.1768 34.9845 54.6922 34.6714C57.6822 34.0542 58.5567 35.6574 58.794 36.3751C59.7448 39.2545 55.612 41.4305 54.3229 42.029C52.6711 42.7958 49.9781 43.2628 47.7726 43.1618L47.6763 43.1556L47.0968 43.1046L47.0396 43.5879L46.9843 44.0601C46.8361 49.7784 46.0193 53.3998 44.3384 55.7926C42.5766 58.3012 40.128 59.0042 37.9711 59.4664C37.2353 59.6237 36.5667 59.6923 35.9605 59.6923ZM31.5809 38.8804C32.9243 39.9555 33.042 41.9785 33.1473 45.7591C33.1607 46.2309 33.1731 46.6774 33.1897 47.0944C33.2403 48.3573 33.3589 51.3144 33.8221 52.5639C33.8874 52.7407 33.946 52.9199 34.008 53.1101C34.5241 54.6903 34.7829 55.4829 37.0146 55.0058C38.888 54.6041 39.8511 54.2438 40.6051 53.1706C41.7007 51.6103 42.3135 48.4717 42.426 43.8419L44.7054 43.8971L42.4417 43.6255L42.5084 43.0603C42.7253 41.1969 42.8816 39.8511 44.1268 38.9609C45.1262 38.247 46.2647 38.3161 47.1716 38.4796C46.1751 37.7266 45.8997 36.8435 45.8263 36.4814L45.6361 35.5449L46.1703 34.7524C49.2475 30.1869 51.7847 24.5759 53.1324 19.3575C54.5173 13.9957 54.0951 11.1482 53.6729 10.6097C48.0833 3.46749 38.3905 6.41646 37.3782 6.751L37.2072 6.84346L36.3493 7.0031L35.91 6.91208C34.6985 6.66046 33.3527 6.5213 31.9102 6.49795C29.6436 6.45982 27.8151 6.99548 26.3158 8.13303L25.2755 8.92174L24.0683 8.42469C21.4892 7.37006 13.9137 5.24983 9.91633 8.08109C7.69746 9.65279 6.68667 12.7323 6.9116 17.2344C6.98595 18.7208 7.99578 24.3476 9.66185 29.8047C11.9641 37.3463 14.0562 39.8516 14.9298 40.1428C15.0823 40.1943 15.4778 39.8869 15.8715 39.4141C17.5128 37.4466 19.2123 35.5284 20.9678 33.662L22.2879 32.2728L23.8839 33.3332C24.5273 33.7607 25.2369 34.0032 25.9655 34.049L29.7718 30.8026L29.2204 36.4299C29.2081 36.5562 29.2019 36.7282 29.2514 37.0475L29.4173 38.1141L28.6977 38.9185L28.6147 39.0119L30.7059 39.9769L31.5809 38.8804Z" fill="black"/>
<path d="M55.1532 36.905C48.517 38.2742 48.061 36.0272 48.061 36.0272C55.0679 25.6305 57.9968 12.4326 55.4691 9.20292C48.5733 0.39223 36.6358 4.55882 36.4366 4.667L36.3723 4.67843C35.0613 4.40632 33.5939 4.24428 31.9446 4.2176C28.9417 4.16851 26.6643 5.00488 24.9358 6.31543C24.9358 6.31543 3.64104 -2.45714 4.63134 17.3483C4.84198 21.5621 10.6703 49.2299 17.6224 40.8729C20.1635 37.8172 22.6182 35.2332 22.6182 35.2332C23.8378 36.0429 25.2975 36.4566 26.8277 36.3079L26.9469 36.2069C26.9097 36.5862 26.9268 36.9574 26.9945 37.3968C25.2036 39.3979 25.7297 39.7491 22.1493 40.4859C18.5265 41.2322 20.6548 42.5613 22.0445 42.9088C23.7286 43.33 27.626 43.9267 30.259 40.241L30.1536 40.6613C30.8556 41.2236 31.3484 44.3175 31.2659 47.122C31.1835 49.9266 31.1277 51.8524 31.681 53.3564C32.2338 54.8605 32.7847 58.2441 37.4913 57.2357C41.4239 56.3931 43.4617 54.209 43.7457 50.5662C43.9468 47.976 44.4019 48.3592 44.431 46.0436L44.7965 44.9475C45.2178 41.4367 44.8632 40.3043 47.2865 40.8309L47.8751 40.8824C49.6584 40.9634 51.9921 40.5955 53.3622 39.9588C56.3122 38.5906 58.0616 36.305 55.1532 36.905Z" fill="#336791"/>
<path d="M36.1982 58.2869C32.2752 58.2869 31.0323 55.1802 30.5238 53.9097C29.7794 52.0478 29.6188 44.8221 29.7847 38.8965C29.7871 38.7966 29.8093 38.6982 29.85 38.6069C29.8907 38.5155 29.949 38.4332 30.0217 38.3645C30.0943 38.2959 30.1798 38.2423 30.2733 38.2068C30.3668 38.1713 30.4663 38.1547 30.5662 38.1579C30.666 38.1606 30.7643 38.183 30.8555 38.2237C30.9466 38.2644 31.0289 38.3227 31.0975 38.3953C31.1661 38.4678 31.2197 38.5532 31.2553 38.6465C31.2909 38.7398 31.3077 38.8392 31.3049 38.939C31.1138 45.7733 31.3849 51.9667 31.9359 53.345C32.7956 55.4938 34.0994 57.3734 37.7857 56.5837C41.2851 55.8331 42.5956 54.5064 43.1794 51.1223C43.6274 48.5255 44.5133 41.1378 44.6224 39.68C44.6297 39.5804 44.6566 39.4832 44.7015 39.394C44.7465 39.3048 44.8086 39.2253 44.8843 39.1601C44.96 39.095 45.0478 39.0454 45.1427 39.0142C45.2376 38.983 45.3377 38.9709 45.4373 38.9785C45.6384 38.9937 45.8251 39.0881 45.9566 39.2409C46.0882 39.3937 46.1537 39.5924 46.1388 39.7934C46.0249 41.3113 45.1433 48.6847 44.6782 51.3811C43.9891 55.378 42.2072 57.1908 38.1045 58.0706C37.4073 58.2197 36.7739 58.2864 36.1982 58.2869ZM14.9264 43.1127C14.5835 43.1116 14.243 43.0553 13.918 42.9459C11.3698 42.0957 8.94267 37.9458 6.70378 30.6101C4.99959 25.0262 3.9197 19.1978 3.82486 17.3035C3.54417 11.6877 4.99006 7.71458 8.12346 5.49523C14.3221 1.10323 24.7498 5.28554 25.1906 5.46568C25.3773 5.54196 25.5261 5.6893 25.6042 5.87528C25.6824 6.06127 25.6834 6.27067 25.6071 6.45741C25.5308 6.64416 25.3835 6.79295 25.1975 6.87106C25.0115 6.94917 24.8021 6.9502 24.6154 6.87393C24.5148 6.83294 14.5156 2.82696 8.99938 6.73811C6.32015 8.63768 5.09014 12.1671 5.34319 17.2277C5.42278 18.8237 6.43166 24.512 8.15777 30.1659C10.1565 36.7148 12.4311 40.8471 14.3988 41.5033C14.7076 41.6063 15.6474 41.9194 16.9909 40.3038C18.5575 38.4222 20.1829 36.5904 21.8647 34.811C22.0054 34.6706 22.1954 34.5909 22.3942 34.5889C22.5929 34.5869 22.7846 34.6628 22.928 34.8003C23.0715 34.9379 23.1555 35.1261 23.162 35.3247C23.1684 35.5234 23.0969 35.7167 22.9627 35.8632C22.9398 35.8871 20.6528 38.278 18.1603 41.2765C16.9799 42.6962 15.8485 43.1127 14.9264 43.1127ZM48.0136 36.7053C47.8758 36.7051 47.7406 36.6675 47.6225 36.5964C47.5043 36.5253 47.4078 36.4234 47.3431 36.3017C47.2783 36.18 47.2479 36.043 47.2551 35.9053C47.2622 35.7676 47.3067 35.6345 47.3836 35.5201C54.4668 25.0095 56.953 12.3096 54.8237 9.58843C52.1435 6.16385 48.3591 4.37531 43.5749 4.27189C40.0327 4.19564 37.2171 5.10016 36.7568 5.2579L36.641 5.30508C36.1782 5.45043 35.8232 5.1969 35.6893 4.90048C35.6129 4.73065 35.6013 4.53875 35.6567 4.36097C35.7121 4.1832 35.8307 4.03184 35.99 3.93544C36.0119 3.92257 36.0815 3.89303 36.1944 3.85157C36.9765 3.56515 39.8349 2.70734 43.3753 2.74785C48.6689 2.80408 53.0419 4.8452 56.0204 8.6515C57.4296 10.4524 57.4329 14.6014 56.0294 20.0352C54.5988 25.5752 51.9067 31.5289 48.6441 36.3703C48.4983 36.5881 48.2581 36.7053 48.0136 36.7053ZM48.3758 41.571C47.1663 41.571 46.0821 41.4004 45.4331 41.0115C44.7659 40.6117 44.6386 40.0684 44.6219 39.7801C44.4399 36.5824 46.2041 36.0257 47.1039 35.7717C46.9786 35.5821 46.8003 35.359 46.6159 35.1288C46.0912 34.4731 45.3725 33.5752 44.8188 32.2323C44.732 32.0226 44.4604 31.5351 44.1459 30.9704C42.4402 27.9118 38.8913 21.5473 41.1712 18.2881C42.2263 16.7798 44.3274 16.186 47.4232 16.5172C46.5125 13.7426 42.1758 5.06347 31.8853 4.89476C28.7905 4.84329 26.2524 5.79499 24.3452 7.72078C20.0752 12.0332 20.2296 19.8359 20.232 19.9141C20.2346 20.0139 20.2175 20.1133 20.1818 20.2065C20.146 20.2997 20.0922 20.385 20.0235 20.4575C19.9548 20.5299 19.8724 20.5881 19.7812 20.6287C19.69 20.6693 19.5917 20.6916 19.4919 20.6942C19.392 20.6969 19.2927 20.6798 19.1994 20.644C19.1062 20.6083 19.021 20.5545 18.9485 20.4858C18.8761 20.417 18.8179 20.3347 18.7772 20.2435C18.7366 20.1523 18.7144 20.054 18.7117 19.9541C18.7022 19.6077 18.543 11.4194 23.2648 6.65042C25.4746 4.41868 28.3836 3.31686 31.9106 3.37453C38.4938 3.48271 42.7314 6.82961 45.1266 9.61797C47.7377 12.657 49.0178 16.0092 49.1231 17.1281C49.2017 17.9602 48.6046 18.1265 48.484 18.1513L48.2095 18.1575C45.1714 17.6709 43.2223 18.0088 42.4164 19.1602C40.6822 21.6388 44.0396 27.6592 45.4731 30.2303C45.8391 30.886 46.1031 31.3602 46.2242 31.6528C46.695 32.7946 47.3093 33.5619 47.8025 34.1786C48.2367 34.7209 48.6127 35.1913 48.7471 35.7431C48.8095 35.8527 49.6954 37.1633 54.9524 36.0782C56.2701 35.8065 57.0602 36.0386 57.3018 36.7692C57.777 38.206 55.1111 39.8821 53.6352 40.5674C52.3127 41.1821 50.202 41.571 48.3758 41.571ZM46.1379 39.6548C46.3047 39.823 47.1392 40.1132 48.8672 40.0389C50.4036 39.9731 52.0239 39.639 52.9961 39.1877C54.2395 38.6101 55.0696 37.9644 55.4995 37.5236L55.2612 37.5674C51.9 38.2613 49.5224 38.1688 48.1947 37.2924C48.1054 37.2336 48.0195 37.1698 47.9374 37.1013C47.7935 37.158 47.6605 37.1952 47.5657 37.2219C46.8127 37.433 46.034 37.6518 46.1379 39.6548ZM24.4248 43.9033C23.5898 43.9033 22.711 43.7894 21.8137 43.565C20.8839 43.3324 19.3165 42.6323 19.3403 41.4824C19.3675 40.1923 21.2437 39.8053 21.95 39.66C24.5015 39.1343 24.6678 38.9237 25.4651 37.911C25.6977 37.616 25.9869 37.2486 26.3815 36.8082C26.9672 36.1525 27.6072 35.8203 28.284 35.8203C28.7553 35.8203 29.1418 35.98 29.3972 36.0863C30.2112 36.4237 30.8903 37.2395 31.1695 38.2151C31.4216 39.0953 31.3011 39.9426 30.8312 40.6007C29.2886 42.761 27.073 43.9033 24.4248 43.9033ZM20.983 41.5477C21.2122 41.7249 21.6717 41.9618 22.183 42.0895C22.9603 42.284 23.7142 42.3826 24.4252 42.3826C26.5917 42.3826 28.3311 41.4857 29.5945 39.7167C29.858 39.3478 29.7789 38.8794 29.7084 38.633C29.5607 38.1169 29.1937 37.6475 28.8158 37.4907C28.6109 37.4059 28.4407 37.341 28.2844 37.341C28.2006 37.341 27.9451 37.341 27.5153 37.8219C27.2186 38.1555 26.9334 38.4991 26.6603 38.8522C25.6672 40.1132 25.212 40.5412 22.2573 41.1497C21.5363 41.2975 21.1665 41.4481 20.983 41.5477ZM26.83 38.0402C26.6484 38.0399 26.473 37.9747 26.3353 37.8563C26.1977 37.738 26.1069 37.5743 26.0794 37.3949C26.0603 37.2687 26.0476 37.1416 26.0413 37.0141C24.1045 36.9779 22.2359 36.1468 20.8172 34.6666C19.0234 32.7951 18.207 30.2021 18.5778 27.5529C18.9805 24.6759 18.8299 22.1363 18.7489 20.7719C18.7265 20.3926 18.7103 20.1186 18.7112 19.9289C18.7127 19.6882 18.7174 19.0501 20.8505 17.9688C21.6092 17.5842 23.1304 16.9132 24.7922 16.7412C27.5453 16.4566 29.36 17.6828 29.9033 20.1943C31.3697 26.9749 30.0196 29.9739 29.0336 32.1641C28.8501 32.5721 28.6766 32.9571 28.538 33.3303L28.4155 33.6591C27.8946 35.0559 27.4443 36.2626 27.5825 37.1638C27.5976 37.2625 27.5932 37.3632 27.5694 37.4602C27.5457 37.5572 27.503 37.6485 27.444 37.729C27.3849 37.8095 27.3105 37.8776 27.2251 37.9293C27.1397 37.9811 27.045 38.0155 26.9462 38.0306L26.83 38.0402ZM20.2367 20.1395L20.2663 20.6823C20.3501 22.0996 20.5065 24.7369 20.0833 27.764C19.7778 29.9491 20.445 32.0817 21.9147 33.6143C23.0761 34.8257 24.6044 35.4944 26.1752 35.4944H26.2076C26.3834 34.7533 26.6756 33.9708 26.9901 33.1278L27.1116 32.8008C27.2684 32.3796 27.4519 31.9716 27.6463 31.5398C28.5952 29.4315 29.7766 26.8071 28.416 20.516C28.1467 19.2698 27.4933 18.5488 26.4196 18.3109C24.2141 17.8239 20.9273 19.4828 20.2367 20.1395ZM24.826 19.8169C24.7879 20.0857 25.3183 20.8034 26.0103 20.8992C26.7008 20.9959 27.2918 20.4345 27.3294 20.1657C27.3671 19.8969 26.8371 19.6005 26.1451 19.5043C25.4532 19.408 24.8627 19.5481 24.826 19.8169ZM26.169 21.1637L25.975 21.1503C25.5461 21.0907 25.1124 20.8205 24.8155 20.4269C24.7112 20.2887 24.541 20.0209 24.5749 19.7816C24.623 19.4309 25.051 19.2207 25.7186 19.2207C25.8678 19.2207 26.0231 19.2317 26.1795 19.2536C26.5445 19.3041 26.8833 19.4094 27.1335 19.5491C27.5672 19.7912 27.5991 20.0614 27.5796 20.201C27.5262 20.5884 26.91 21.1637 26.169 21.1637ZM25.0781 19.8617C25.0996 20.0275 25.5104 20.5746 26.0451 20.6485L26.1694 20.6571C26.6632 20.6571 27.032 20.2687 27.0754 20.1414C27.0296 20.0547 26.7123 19.8393 26.1104 19.7554C25.9807 19.7371 25.85 19.7277 25.7191 19.7273C25.3321 19.7273 25.1267 19.8145 25.0781 19.8617ZM45.8586 19.2684C45.8963 19.5371 45.3663 20.2548 44.6748 20.3511C43.9838 20.4474 43.3924 19.8865 43.3543 19.6177C43.3181 19.3489 43.848 19.052 44.539 18.9562C45.23 18.8595 45.8205 19.0001 45.8586 19.2684ZM44.5152 20.4884C43.8499 20.4884 43.2757 19.9708 43.2285 19.6348C43.1737 19.2317 43.8375 18.9252 44.5209 18.8304C44.6715 18.8094 44.8207 18.7989 44.9641 18.7989C45.5541 18.7989 45.9449 18.9719 45.984 19.2512C46.0092 19.4318 45.8705 19.7106 45.6318 19.9622C45.474 20.1276 45.1428 20.414 44.6915 20.4764L44.5152 20.4884ZM44.9646 19.0525C44.8324 19.0525 44.6965 19.0622 44.5567 19.0816C43.8699 19.1773 43.4601 19.4528 43.4801 19.6005C43.503 19.763 43.9414 20.2353 44.5157 20.2353L44.6572 20.2253C45.0323 20.1734 45.3139 19.9284 45.4483 19.7873C45.6594 19.5657 45.7433 19.357 45.7333 19.286C45.7199 19.1916 45.4664 19.0525 44.9646 19.0525ZM46.8542 34.7042C46.7164 34.7043 46.5812 34.6669 46.4631 34.5961C46.3449 34.5252 46.2482 34.4236 46.1834 34.302C46.1186 34.1804 46.0881 34.0435 46.0951 33.906C46.1021 33.7684 46.1464 33.6353 46.2232 33.5209C47.8426 31.1024 47.5461 28.6362 47.2597 26.251C47.1372 25.2349 47.0114 24.1841 47.0438 23.1757C47.0772 22.1382 47.2092 21.2823 47.3364 20.4545C47.4875 19.4738 47.6305 18.5473 47.5714 17.4474C47.566 17.3477 47.5803 17.2479 47.6135 17.1538C47.6467 17.0596 47.6981 16.9729 47.7648 16.8986C47.8315 16.8243 47.9121 16.7639 48.0022 16.7207C48.0922 16.6776 48.1899 16.6527 48.2896 16.6473C48.3893 16.6419 48.489 16.6562 48.5832 16.6894C48.6774 16.7226 48.7641 16.774 48.8384 16.8406C48.9884 16.9753 49.0789 17.1641 49.0897 17.3654C49.1574 18.6226 48.9958 19.6711 48.8395 20.6857C48.719 21.4687 48.5941 22.2783 48.5641 23.2243C48.535 24.1174 48.6489 25.0657 48.7695 26.0694C49.0745 28.6057 49.42 31.4803 47.487 34.3668C47.4173 34.4706 47.3231 34.5557 47.2127 34.6146C47.1024 34.6734 46.9792 34.7042 46.8542 34.7042Z" fill="white"/>
</svg>
