<svg width="61" height="61" viewBox="0 0 61 61" fill="none" xmlns="http://www.w3.org/2000/svg">
<g clip-path="url(#clip0_26_8)">
<path d="M10.8037 22.3984H58.3027V57.5068H10.8037V22.3984Z" fill="white"/>
<path d="M0.714844 30.4571V60.2423H60.2852V0.671967H0.714844V30.4571ZM48.719 28.0743C50.1458 28.4054 51.4425 29.1516 52.4457 30.2188C52.9979 30.7939 53.478 31.434 53.8754 32.1251C53.8754 32.2013 51.302 33.9408 49.7341 34.913C49.6769 34.9511 49.4481 34.7033 49.1955 34.3268C48.9093 33.8329 48.5026 33.4196 48.0135 33.1254C47.5243 32.8313 46.9685 32.6658 46.3981 32.6445C44.592 32.5206 43.4291 33.469 43.4387 35.0274C43.4242 35.4153 43.513 35.8001 43.696 36.1425C44.0916 36.967 44.8302 37.4578 47.1463 38.4586C51.4116 40.2934 53.2368 41.5038 54.371 43.2242C55.6387 45.1305 55.9198 48.2091 55.062 50.487C54.1089 52.9652 51.7737 54.6474 48.4712 55.205C46.9628 55.3779 45.4387 55.3619 43.9343 55.1574C41.6285 54.7773 39.5046 53.6702 37.8724 51.9977C37.3244 51.3925 36.2569 49.8151 36.3236 49.7007C36.4972 49.5711 36.6804 49.4548 36.8716 49.3528L39.0781 48.1328L40.789 47.1416L41.1464 47.6706C41.7498 48.5333 42.5174 49.2685 43.4053 49.8342C45.3116 50.8349 47.9136 50.6967 49.2003 49.5387C49.6323 49.1143 49.9018 48.5519 49.9619 47.9493C50.022 47.3467 49.8689 46.7422 49.5291 46.2409C49.0526 45.5784 48.0995 45.0209 45.4355 43.8581C42.3616 42.5332 41.0368 41.7135 39.8263 40.4077C39.0709 39.5459 38.513 38.5293 38.1917 37.4292C37.9523 36.1723 37.9169 34.8849 38.0869 33.6167C38.7207 30.6477 40.9462 28.5747 44.1964 27.9599C45.7016 27.774 47.2262 27.8158 48.719 28.0838V28.0743ZM34.7366 30.5715V33.0115H27.002V55.043H21.5168V33.0067H13.7631V30.6239C13.7388 29.8022 13.7579 28.9798 13.8203 28.1601C13.8584 28.1172 18.5859 28.1172 24.3047 28.1172H34.708L34.7366 30.5715Z" fill="#007ACC"/>
</g>
<defs>
<clipPath id="clip0_26_8">
<rect width="61" height="61" fill="white"/>
</clipPath>
</defs>
</svg>
