<svg width="61" height="61" viewBox="0 0 61 61" fill="none" xmlns="http://www.w3.org/2000/svg">
<path d="M26.3954 31.6766H30.3666L28.2663 28.2978L24.4119 34.4069H22.6577L27.3461 27.0687C27.449 26.9204 27.5867 26.7994 27.7471 26.7165C27.9075 26.6336 28.0858 26.5912 28.2663 26.5931C28.6309 26.5931 28.9707 26.7661 29.168 27.0564L33.8745 34.4069H32.1203L31.293 33.0415H27.2718L26.3954 31.6766ZM44.6167 33.0415V26.6675H43.1284V33.6658C43.1284 33.8574 43.2028 34.0428 43.3448 34.1848C43.4868 34.3268 43.6784 34.4069 43.8885 34.4069H50.6767L51.5541 33.0415H44.6167ZM19.9894 31.8992C21.4348 31.8992 22.6086 30.7321 22.6086 29.2867C22.6086 27.8413 21.4353 26.6675 19.9894 26.6675H13.4772V34.4073H14.9655V28.0324H19.8908C20.5827 28.0324 21.1384 28.5947 21.1384 29.2862C21.1384 29.9777 20.5823 30.54 19.8908 30.54L15.6941 30.5338L20.1376 34.4069H22.3003L19.3103 31.8987L19.9894 31.8992ZM4.31717 34.4069C2.18074 34.4069 0.446533 32.6774 0.446533 30.54C0.446533 28.4026 2.18027 26.667 4.31717 26.667H8.81545C10.9528 26.667 12.6856 28.4031 12.6856 30.54C12.6856 32.6769 10.9528 34.4069 8.81545 34.4069H4.31717ZM8.71537 33.0415C9.04421 33.042 9.36993 32.9777 9.67389 32.8522C9.97785 32.7267 10.2541 32.5425 10.4868 32.3102C10.7195 32.0779 10.9042 31.802 11.0302 31.4982C11.1562 31.1945 11.2211 30.8689 11.2211 30.54C11.2213 30.2108 11.1567 29.8848 11.0308 29.5805C10.905 29.2763 10.7205 28.9998 10.4878 28.7669C10.2551 28.534 9.9788 28.3492 9.67469 28.2231C9.37057 28.097 9.0446 28.032 8.71537 28.0319H4.4163C3.75156 28.0324 3.11424 28.2969 2.64451 28.7673C2.17478 29.2376 1.91111 29.8753 1.91149 30.54C1.91155 30.8688 1.9764 31.1943 2.10235 31.498C2.22829 31.8017 2.41285 32.0776 2.64547 32.3099C2.8781 32.5422 3.15422 32.7264 3.45807 32.8519C3.76192 32.9775 4.08754 33.0419 4.4163 33.0415H8.71537ZM36.9822 34.4069C34.8453 34.4069 33.1097 32.6774 33.1097 30.54C33.1097 28.4026 34.8453 26.667 36.9822 26.667H42.3254L41.4538 28.0319H37.0813C36.4162 28.0323 35.7784 28.2966 35.308 28.7669C34.8377 29.2372 34.5732 29.8749 34.5727 30.54C34.5727 31.9235 35.6974 33.0415 37.0813 33.0415H42.4488L41.572 34.4069H36.9822ZM55.1855 33.0415C54.6402 33.0418 54.1098 32.8639 53.6749 32.5349C53.24 32.2059 52.9245 31.7439 52.7764 31.2191H59.1385L60.0154 29.8543H52.7764C52.9257 29.3301 53.2414 28.8688 53.6761 28.54C54.1107 28.2113 54.6405 28.0329 55.1855 28.0319H59.5522L60.4357 26.667H55.0863C52.9494 26.667 51.2138 28.4031 51.2138 30.54C51.2138 32.6769 52.9494 34.4069 55.0863 34.4069H59.6761L60.5535 33.0415H55.1855Z" fill="#EA1B22"/>
</svg>
