<svg width="61" height="61" viewBox="0 0 61 61" fill="none" xmlns="http://www.w3.org/2000/svg">
<path d="M54.9953 14.6304L31.9773 1.38199C31.5961 1.14371 31.0719 1.0484 30.5 1.0484C29.9281 1.0484 29.4039 1.19137 29.0227 1.38199L6.14766 14.6781C5.3375 15.1547 4.76562 16.3461 4.76562 17.2515V43.7961C4.76562 44.3203 4.86094 44.9398 5.24219 45.464L56.1391 15.9172C55.8531 15.3453 55.4242 14.9164 54.9953 14.6304Z" fill="#9B4F96"/>
<path d="M5.0993 45.4164C5.33759 45.7977 5.67118 46.1313 6.00477 46.3219L28.9751 59.618C29.3563 59.8563 29.8806 59.9516 30.4524 59.9516C31.0243 59.9516 31.5485 59.8086 31.9298 59.618L54.8048 46.3219C55.6149 45.8453 56.1868 44.6539 56.1868 43.7485V17.2039C56.1868 16.775 56.1392 16.2985 55.9009 15.8696L5.0993 45.4164Z" fill="#68217A"/>
<path d="M40.6508 36.2664C38.6492 39.793 34.8367 42.1758 30.5 42.1758C24.0664 42.1758 18.8242 36.9336 18.8242 30.5C18.8242 24.0664 24.0664 18.8242 30.5 18.8242C34.8367 18.8242 38.6492 21.207 40.6508 24.7812L46.8461 21.207C43.6055 15.5359 37.5055 11.6758 30.5 11.6758C20.1109 11.6758 11.6758 20.1109 11.6758 30.5C11.6758 40.8891 20.1109 49.3242 30.5 49.3242C37.4578 49.3242 43.5578 45.5117 46.7984 39.8883L40.6508 36.2664ZM46.2266 31.5484L46.6555 29.4992H44.6539V27.2594H47.0844L47.6562 24.3047H49.9914L49.4195 27.2117H51.2305L51.8023 24.3047H54.0898L53.518 27.2117H54.6617V29.4516H53.0891L52.6602 31.5008H54.6617V33.7406H52.2312L51.6594 36.6H49.3242L49.8961 33.7406H48.0852L47.5133 36.6H45.2258L45.7977 33.7406H44.6539V31.5008H46.2266V31.5484ZM48.5141 31.5484H50.325L50.7539 29.4992H48.943L48.5141 31.5484Z" fill="white"/>
</svg>
