<svg width="61" height="61" viewBox="0 0 61 61" fill="none" xmlns="http://www.w3.org/2000/svg">
<g clip-path="url(#clip0_26_24)">
<path d="M56.0857 46.8184C52.7626 46.7274 50.2254 47.0381 48.0547 47.9522C47.4385 48.2129 46.4558 48.2186 46.3552 48.9911C46.6941 49.3466 46.746 49.877 47.0162 50.3145C47.5338 51.1504 48.4087 52.2746 49.1889 52.8651C50.0415 53.5075 50.9202 54.1961 51.8343 54.7527C53.4613 55.7449 55.2765 56.3111 56.8401 57.3033C57.7637 57.8895 58.6791 58.6267 59.5803 59.2877C60.0254 59.6137 60.3252 60.1217 60.9018 60.3266V60.2337C60.5983 59.8467 60.5201 59.3139 60.2408 58.9103L59.0123 57.6817C57.8113 56.0881 56.2868 54.6884 54.6674 53.5265C53.3755 52.5977 50.4827 51.3448 49.9447 49.8427L49.8499 49.7479C50.7658 49.6435 51.8381 49.3123 52.6849 49.085C54.1051 48.7051 55.3751 48.8038 56.8401 48.424L58.8245 47.8583V47.4804C58.0834 46.7207 57.5549 45.7138 56.7472 45.0251C54.6307 43.2232 52.3223 41.4247 49.9452 39.9245C48.627 39.0924 46.9981 38.5506 45.6004 37.8452C45.1295 37.6089 44.3046 37.484 43.9939 37.0894C43.2604 36.1549 42.8601 34.9692 42.2944 33.8783C41.1088 31.5942 39.945 29.1017 38.8932 26.6984C38.1765 25.0605 37.7094 23.4445 36.8159 21.9757C32.5268 14.924 27.9104 10.6669 20.7581 6.48362C19.2355 5.59388 17.4036 5.24217 15.4673 4.78229L12.3492 4.59405C11.7144 4.32956 11.0553 3.55324 10.4596 3.17532C8.0906 1.67749 2.01253 -1.57839 0.256869 2.70305C-0.850662 5.4042 1.91388 8.04007 2.90227 9.41019C3.59662 10.369 4.48446 11.4465 4.9796 12.5264C5.30748 13.2375 5.36324 13.9485 5.6425 14.6991C6.3278 16.5496 6.92684 18.5635 7.81515 20.2725C8.2636 21.1379 8.75874 22.0486 9.32681 22.823C9.67327 23.2977 10.2704 23.5083 10.3657 24.2399C9.78097 25.0572 9.74761 26.3248 9.42021 27.358C7.94382 32.014 8.50235 37.7995 10.6488 41.2436C11.3079 42.303 12.8605 44.57 14.9936 43.7008C16.8608 42.9392 16.4438 40.5845 16.978 38.5053C17.0991 38.0344 17.0247 37.688 17.2611 37.3715V37.4664L18.9624 40.8657C20.221 42.893 22.4528 45.0113 24.3462 46.441C25.3274 47.1821 26.0999 48.4626 27.3695 48.8962V48.8014H27.2746C27.0287 48.4178 26.6437 48.2596 26.331 47.9527C25.5919 47.2269 24.7693 46.3257 24.1584 45.4955C22.4366 43.1594 20.9154 40.6012 19.5305 37.9396C18.8676 36.6681 18.2924 35.2666 17.7338 33.9727C17.518 33.4737 17.5218 32.7179 17.0729 32.461C16.4624 33.4084 15.5612 34.1757 15.0884 35.2942C14.3345 37.0832 14.2359 39.2668 13.9566 41.5286C13.7908 41.5882 13.8637 41.5472 13.7669 41.6234C12.4507 41.3051 11.9894 39.9516 11.4995 38.7884C10.2633 35.8508 10.0326 31.1205 11.1215 27.7364C11.4027 26.8614 12.6761 24.1064 12.1604 23.2967C11.9145 22.4909 11.103 22.0234 10.6488 21.4072C10.0864 20.6456 9.52649 19.6425 9.13713 18.7618C8.12444 16.4719 7.6536 13.8994 6.58657 11.5838C6.07665 10.4763 5.21646 9.35538 4.50924 8.37271C3.72529 7.28186 2.84889 6.47742 2.24175 5.15973C2.02587 4.69079 1.73374 3.9402 2.05208 3.46031C2.15454 3.13434 2.29799 2.99852 2.61967 2.89272C3.16676 2.47001 4.69367 3.03426 5.26316 3.27063C6.77863 3.8997 8.04247 4.49921 9.32681 5.34988C9.94109 5.75734 10.5649 6.547 11.3093 6.7667H12.16C13.4891 7.07217 14.9784 6.85963 16.2217 7.23754C18.4182 7.90568 20.3859 8.94459 22.173 10.0726C27.6163 13.511 32.0693 18.4029 35.1146 24.2427C35.604 25.183 35.8165 26.0784 36.2483 27.0759C37.1175 29.0865 38.2141 31.1548 39.0796 33.1225C39.945 35.0826 40.7866 37.0637 42.0095 38.6959C42.6519 39.5542 45.1314 40.0141 46.2594 40.4906C47.0505 40.8238 48.3463 41.1721 49.0945 41.6244C50.5242 42.4865 51.9091 43.514 53.2516 44.4575C53.9197 44.9303 55.9823 45.9673 56.0847 46.8199L56.0857 46.8184ZM13.8599 10.8284C13.1674 10.8156 12.678 10.9028 12.1604 11.0167V11.1115H12.2534C12.5846 11.7892 13.1674 12.2267 13.5768 12.8109L14.5204 14.7953L14.6152 14.7024C15.2 14.2892 15.4678 13.6302 15.464 12.6232C15.2295 12.3754 15.1962 12.0685 14.9912 11.7725C14.7234 11.3798 14.2001 11.1582 13.8594 10.8289L13.8599 10.8284Z" fill="#00618A"/>
</g>
<defs>
<clipPath id="clip0_26_24">
<rect width="61" height="61" fill="white"/>
</clipPath>
</defs>
</svg>
