<svg width="61" height="61" viewBox="0 0 61 61" fill="none" xmlns="http://www.w3.org/2000/svg">
<path d="M33.1211 47.2635C33.093 46.9157 33.0763 46.6917 33.0763 46.6917C33.0763 46.6917 32.025 39.5961 30.7716 37.4778C30.5743 37.1409 30.7921 35.765 31.3468 33.7225C31.6709 34.2796 33.0339 36.6734 33.3093 37.4445C33.6181 38.3137 33.681 38.5629 33.681 38.5629C33.681 38.5629 32.9328 34.7114 31.7062 32.4644C32.0043 31.4628 32.3227 30.4674 32.6612 29.4787C33.1249 30.2936 34.2401 32.2709 34.4855 32.9576C34.5341 33.0972 34.577 33.2164 34.6142 33.3265L34.6494 33.1292C34.3682 31.9359 33.8154 29.86 33.0596 28.3245C34.7371 19.59 40.4611 7.91616 46.3271 2.70734H8.05389C5.48665 2.70734 3.38882 4.80707 3.38882 7.37241V49.5815C3.38882 52.1469 5.48856 54.2466 8.05437 54.2466H33.2631C33.0725 51.9242 33.0252 49.5923 33.1216 47.264" fill="#0B7FCC"/>
<path d="M31.3468 33.7225C31.6709 34.2791 33.0339 36.6715 33.3088 37.444C33.6181 38.3132 33.681 38.5625 33.681 38.5625C33.681 38.5625 32.9328 34.7109 31.7062 32.4639C32.0046 31.4616 32.323 30.4654 32.6612 29.4759C33.0839 30.2226 34.0537 31.9392 34.4016 32.7508L34.4407 32.2928C34.1319 31.1033 33.6625 29.545 33.0596 28.324C34.6046 20.2839 39.579 9.75237 44.9384 4.06793H8.05342C7.17733 4.06869 6.33733 4.41702 5.7178 5.03646C5.09826 5.6559 4.74982 6.49585 4.74893 7.37194V46.5025C13.1016 43.2947 23.1747 40.3644 31.8439 40.4911C31.5236 39.2497 31.1572 38.1274 30.7716 37.4773C30.5743 37.1404 30.7921 35.7632 31.3468 33.7225Z" fill="url(#paint0_linear_26_26)"/>
<path d="M55.2574 1.32531C52.6363 -1.0127 49.4605 -0.072447 46.3295 2.70687C45.8457 3.1393 45.3823 3.59395 44.9408 4.06936C39.5794 9.75284 34.607 20.2834 33.062 28.324C33.6634 29.5454 34.1342 31.1033 34.4411 32.2928C34.5212 32.5978 34.5936 32.8847 34.6518 33.1287C34.7876 33.7039 34.86 34.0799 34.86 34.0799C34.86 34.0799 34.8119 33.8974 34.6146 33.326C34.5774 33.2164 34.5346 33.0953 34.4859 32.9576C34.4606 32.8879 34.4333 32.8189 34.404 32.7508C34.0542 31.9392 33.0863 30.2226 32.6617 29.4782C32.2985 30.5505 31.9768 31.5561 31.7066 32.4639C32.9352 34.7109 33.6839 38.5625 33.6839 38.5625C33.6839 38.5625 33.6186 38.3132 33.3112 37.444C33.0358 36.6715 31.6714 34.2796 31.3492 33.7225C30.7945 35.7627 30.5748 37.1404 30.774 37.4778C31.1595 38.1269 31.5241 39.2516 31.8463 40.4911C32.5725 43.2871 33.0787 46.6922 33.0787 46.6922C33.0787 46.6922 33.0934 46.9157 33.1235 47.264C33.0272 49.5921 33.0744 51.9239 33.265 54.2461C33.5052 57.1579 33.9574 59.6613 34.5346 61L34.9291 60.786C34.0804 58.1482 33.7358 54.6893 33.8864 50.7039C34.1152 44.6072 35.5172 37.2576 38.1069 29.5974C42.487 18.0312 48.5617 8.75349 54.1203 4.32289C49.053 8.89884 42.1953 23.7114 40.1418 29.1971C37.8448 35.3404 36.2159 41.1035 35.2327 46.6269C36.9245 41.45 42.4036 39.2258 42.4036 39.2258C42.4036 39.2258 45.0899 35.9099 48.2305 31.1777C46.3481 31.608 43.2599 32.3414 42.2268 32.7751C40.7018 33.4156 40.2886 33.6329 40.2886 33.6329C40.2886 33.6329 45.231 30.6248 49.4719 29.2624C55.3022 20.079 61.6538 7.03167 55.2579 1.32579" fill="#003956"/>
<defs>
<linearGradient id="paint0_linear_26_26" x1="27.9218" y1="4.93252" x2="27.9218" y2="44.1406" gradientUnits="userSpaceOnUse">
<stop stop-color="#95D7F4"/>
<stop offset="0.92" stop-color="#0F7FCC"/>
<stop offset="1" stop-color="#0F7FCC"/>
</linearGradient>
</defs>
</svg>
