<svg width="61" height="61" viewBox="0 0 61 61" fill="none" xmlns="http://www.w3.org/2000/svg">
<g clip-path="url(#clip0_41_5)">
<path d="M30.2419 0.0172119C14.7936 0.0172119 15.7582 6.74276 15.7582 6.74276L15.7754 13.7106H30.5173V15.8026H9.92006C9.92006 15.8026 0.034729 14.6771 0.034729 30.3254C0.034729 45.9741 8.66289 45.4192 8.66289 45.4192H13.8122V38.1575C13.8122 38.1575 13.5346 29.4955 22.3026 29.4955H36.924C36.924 29.4955 45.1387 29.6288 45.1387 21.5251V8.12615C45.1387 8.12615 46.3864 0.0172119 30.2419 0.0172119ZM22.1132 4.70297C22.4615 4.70265 22.8065 4.77131 23.1284 4.905C23.4503 5.03869 23.7428 5.23479 23.9892 5.48209C24.2355 5.72938 24.4308 6.02302 24.564 6.34618C24.6972 6.66935 24.7655 7.01571 24.7652 7.36544C24.7655 7.71517 24.6972 8.06153 24.564 8.3847C24.4308 8.70786 24.2355 9.0015 23.9892 9.24879C23.7428 9.49609 23.4503 9.69219 23.1284 9.82588C22.8065 9.95957 22.4615 10.0282 22.1132 10.0279C21.7648 10.0282 21.4198 9.95957 21.0979 9.82588C20.776 9.69219 20.4835 9.49609 20.2372 9.24879C19.9908 9.0015 19.7955 8.70786 19.6623 8.3847C19.5292 8.06153 19.4608 7.71517 19.4611 7.36544C19.4608 7.01571 19.5292 6.66935 19.6623 6.34618C19.7955 6.02302 19.9908 5.72938 20.2372 5.48209C20.4835 5.23479 20.776 5.03869 21.0979 4.905C21.4198 4.77131 21.7648 4.70265 22.1132 4.70297Z" fill="url(#paint0_linear_41_5)"/>
<path d="M30.6804 60.7909C46.1286 60.7909 45.1641 54.0654 45.1641 54.0654L45.1469 47.0977H30.4047V45.0058H51.002C51.002 45.0058 60.8873 46.1313 60.8873 30.4825C60.8873 14.834 52.2591 15.389 52.2591 15.389H47.1099V22.6504C47.1099 22.6504 47.3875 31.3124 38.6194 31.3124H23.998C23.998 31.3124 15.7833 31.1791 15.7833 39.283V52.6822C15.7833 52.6822 14.5359 60.7909 30.6801 60.7909M38.8089 56.1056C38.4605 56.1059 38.1155 56.0373 37.7936 55.9036C37.4717 55.7699 37.1792 55.5738 36.9329 55.3265C36.6865 55.0792 36.4912 54.7856 36.358 54.4624C36.2249 54.1393 36.1565 53.7929 36.1568 53.4432C36.1565 53.0934 36.2248 52.747 36.358 52.4238C36.4911 52.1006 36.6865 51.807 36.9328 51.5597C37.1791 51.3123 37.4716 51.1162 37.7935 50.9825C38.1155 50.8488 38.4605 50.7801 38.8089 50.7805C39.1572 50.7801 39.5022 50.8488 39.8241 50.9825C40.146 51.1162 40.4385 51.3123 40.6849 51.5596C40.9312 51.8069 41.1265 52.1005 41.2597 52.4237C41.3929 52.7468 41.4613 53.0932 41.4609 53.4429C41.4613 53.7927 41.3929 54.139 41.2597 54.4622C41.1265 54.7853 40.9312 55.079 40.6849 55.3263C40.4385 55.5736 40.146 55.7697 39.8241 55.9034C39.5022 56.0371 39.1572 56.1059 38.8089 56.1056Z" fill="url(#paint1_linear_41_5)"/>
</g>
<defs>
<linearGradient id="paint0_linear_41_5" x1="584.828" y1="546.64" x2="3612.19" y2="3532.09" gradientUnits="userSpaceOnUse">
<stop stop-color="#387EB8"/>
<stop offset="1" stop-color="#366994"/>
</linearGradient>
<linearGradient id="paint1_linear_41_5" x1="878.938" y1="949.763" x2="4129.39" y2="4010.52" gradientUnits="userSpaceOnUse">
<stop stop-color="#FFE052"/>
<stop offset="1" stop-color="#FFC331"/>
</linearGradient>
<clipPath id="clip0_41_5">
<rect width="61" height="61" fill="white"/>
</clipPath>
</defs>
</svg>
