<svg width="150" height="150" viewBox="0 0 150 150" fill="none" xmlns="http://www.w3.org/2000/svg">
<path d="M18.75 18.75H131.25C132.908 18.75 134.497 19.4085 135.669 20.5806C136.842 21.7527 137.5 23.3424 137.5 25V125C137.5 126.658 136.842 128.247 135.669 129.419C134.497 130.592 132.908 131.25 131.25 131.25H18.75C17.0924 131.25 15.5027 130.592 14.3306 129.419C13.1585 128.247 12.5 126.658 12.5 125V25C12.5 23.3424 13.1585 21.7527 14.3306 20.5806C15.5027 19.4085 17.0924 18.75 18.75 18.75ZM102.906 97.1L125 75L102.906 52.9L94.0625 61.75L107.325 75L94.0625 88.2563L102.906 97.1ZM42.675 75L55.9375 61.7437L47.1 52.9L25 75L47.1 97.1L55.9375 88.25L42.675 75ZM70.275 106.25L93.025 43.75H79.725L56.975 106.25H70.275Z" fill="#56B235"/>
</svg>
