<svg width="28" height="32" viewBox="0 0 28 32" fill="none" xmlns="http://www.w3.org/2000/svg">
<g clip-path="url(#clip0_3_2)">
<path fill-rule="evenodd" clip-rule="evenodd" d="M8 2C3.58172 2 0 5.58172 0 10V23C0 27.4183 3.58172 31 8 31H17C17.9045 31 18.7739 30.8499 19.5847 30.5732C20.1659 30.847 20.8151 31 21.5 31C23.9853 31 26 28.9853 26 26.5V9.5C26 7.79107 25.0474 6.30464 23.6442 5.54274C22.208 3.40596 19.7682 2 17 2H8Z" fill="white" fill-opacity="0.8"/>
<path d="M19 1.90778V6.71276C19 7.3635 19.2274 7.98884 19.6331 8.44983C20.0397 8.91131 20.5903 9.17029 21.1641 9.17004H26" stroke="#007BFF" stroke-width="2" stroke-linecap="round" stroke-linejoin="round"/>
<path d="M27 10.4355V24.3284C26.9687 25.2371 26.763 26.1305 26.3946 26.957C26.0263 27.7836 25.5026 28.5269 24.8538 29.1442C24.2045 29.7644 23.4428 30.2469 22.6122 30.564C21.7816 30.8812 20.8984 31.0269 20.0131 30.9927H8.05309C7.16238 31.0346 6.27239 30.8952 5.43414 30.5824C4.5959 30.2697 3.82588 29.7898 3.16824 29.1702C2.51315 28.5512 1.98413 27.8044 1.61191 26.9732C1.23969 26.142 1.03169 25.243 1 24.3284V7.6692C1.03129 6.76047 1.23703 5.8671 1.60537 5.04057C1.97372 4.21404 2.49738 3.4707 3.14618 2.85337C3.79552 2.23319 4.55724 1.75073 5.38783 1.43356C6.21842 1.11639 7.1016 0.970717 7.98691 1.00487H16.9908C18.3653 0.999876 19.6921 1.52321 20.7112 2.47232L25.3754 6.88602C25.8731 7.32719 26.275 7.87124 26.5549 8.48278C26.8348 9.09431 26.9865 9.75964 27 10.4355Z" stroke="#007BFF" stroke-width="2" stroke-linecap="round" stroke-linejoin="round"/>
<path d="M13.8542 5.69446C12.9427 5.69446 12.168 6.01347 11.5299 6.65149C10.8919 7.28951 10.5729 8.06425 10.5729 8.97571C10.5729 9.06685 10.5776 9.16711 10.5871 9.27649C10.5966 9.38586 10.6101 9.48612 10.6276 9.57727L8.35806 10.8624C8.0664 10.6072 7.73827 10.4111 7.37369 10.274C7.0091 10.1369 6.61718 10.0687 6.19791 10.0695C5.28645 10.0695 4.51171 10.3885 3.87369 11.0265C3.23567 11.6645 2.91666 12.4392 2.91666 13.3507C2.91666 14.2622 3.23567 15.0369 3.87369 15.6749C4.51171 16.3129 5.28645 16.632 6.19791 16.632C6.63541 16.632 7.04556 16.5499 7.42838 16.3859C7.81119 16.2218 8.15754 15.9939 8.46744 15.7023L11.7213 17.3429C11.6667 17.7622 11.6893 18.1723 11.7892 18.5734C11.8891 18.9744 12.067 19.3481 12.3229 19.6945L11.3932 21.1163C11.2656 21.0799 11.1333 21.0525 10.9962 21.0343C10.8591 21.0161 10.718 21.007 10.5729 21.007C9.66145 21.007 8.88671 21.326 8.24869 21.964C7.61067 22.602 7.29166 23.3767 7.29166 24.2882C7.29166 25.1997 7.61067 25.9744 8.24869 26.6124C8.88671 27.2504 9.66145 27.5695 10.5729 27.5695C11.4844 27.5695 12.2591 27.2504 12.8971 26.6124C13.5351 25.9744 13.8542 25.1997 13.8542 24.2882C13.8542 23.9236 13.7951 23.5725 13.677 23.2349C13.5588 22.8973 13.3992 22.5922 13.1979 22.3195L14.1549 20.8976C14.3008 20.934 14.4375 20.9614 14.5651 20.9796C14.6927 20.9978 14.8294 21.007 14.9752 21.007C15.2851 21.007 15.5768 20.9705 15.8502 20.8976C16.1237 20.8247 16.388 20.7153 16.6432 20.5695L18.4479 22.046C18.375 22.2283 18.3203 22.415 18.2838 22.606C18.2474 22.7971 18.2292 22.9932 18.2292 23.1945C18.2292 24.1059 18.5482 24.8807 19.1862 25.5187C19.8242 26.1567 20.5989 26.4757 21.5104 26.4757C22.4219 26.4757 23.1966 26.1567 23.8346 25.5187C24.4726 24.8807 24.7917 24.1059 24.7917 23.1945C24.7917 22.283 24.4726 21.5083 23.8346 20.8702C23.1966 20.2322 22.4219 19.9132 21.5104 19.9132C21.2005 19.9132 20.9088 19.954 20.6354 20.0357C20.362 20.1174 20.0976 20.2315 19.8424 20.3781L18.0377 18.8741C18.1107 18.6919 18.1654 18.5048 18.2018 18.3131C18.2383 18.1213 18.2565 17.9255 18.2565 17.7257C18.2565 16.8142 17.9375 16.0395 17.2995 15.4015C16.6614 14.7635 15.8867 14.4445 14.9752 14.4445C14.5377 14.4445 14.1232 14.5265 13.7317 14.6906C13.3401 14.8546 12.989 15.0825 12.6784 15.3741L9.45181 13.7609C9.48827 13.5968 9.50212 13.4327 9.49337 13.2687C9.48462 13.1046 9.46166 12.9406 9.42447 12.7765L11.7213 11.464C12.013 11.7192 12.3368 11.9153 12.6926 12.0524C13.0484 12.1895 13.4356 12.2577 13.8542 12.257C14.7656 12.257 15.5404 11.9379 16.1784 11.2999C16.8164 10.6619 17.1354 9.88717 17.1354 8.97571C17.1354 8.06425 16.8164 7.28951 16.1784 6.65149C15.5404 6.01347 14.7656 5.69446 13.8542 5.69446ZM6.19791 12.257C6.5078 12.257 6.76775 12.362 6.97775 12.572C7.18775 12.782 7.29239 13.0415 7.29166 13.3507C7.29093 13.6599 7.18593 13.9195 6.97666 14.1295C6.76739 14.3395 6.5078 14.4445 6.19791 14.4445C5.88801 14.4445 5.62843 14.3395 5.41916 14.1295C5.20989 13.9195 5.10489 13.6599 5.10416 13.3507C5.10343 13.0415 5.20843 12.7816 5.41916 12.5709C5.62989 12.3601 5.88947 12.2555 6.19791 12.257ZM10.5729 23.1945C10.8828 23.1945 11.1428 23.2995 11.3528 23.5095C11.5628 23.7195 11.6674 23.979 11.6667 24.2882C11.6659 24.5974 11.5609 24.857 11.3517 25.067C11.1424 25.277 10.8828 25.382 10.5729 25.382C10.263 25.382 10.0034 25.277 9.79416 25.067C9.58489 24.857 9.47989 24.5974 9.47916 24.2882C9.47843 23.979 9.58343 23.7191 9.79416 23.5084C10.0049 23.2976 10.2645 23.193 10.5729 23.1945ZM13.8542 7.88196C14.1641 7.88196 14.424 7.98696 14.634 8.19696C14.844 8.40696 14.9486 8.66654 14.9479 8.97571C14.9472 9.28487 14.8422 9.54446 14.6329 9.75446C14.4236 9.96446 14.1641 10.0695 13.8542 10.0695C13.5443 10.0695 13.2847 9.96446 13.0754 9.75446C12.8661 9.54446 12.7611 9.28487 12.7604 8.97571C12.7597 8.66654 12.8647 8.40659 13.0754 8.19587C13.2861 7.98514 13.5457 7.8805 13.8542 7.88196ZM14.9479 16.632C15.2578 16.632 15.5178 16.737 15.7278 16.947C15.9378 17.157 16.0424 17.4165 16.0417 17.7257C16.0409 18.0349 15.9359 18.2945 15.7267 18.5045C15.5174 18.7145 15.2578 18.8195 14.9479 18.8195C14.638 18.8195 14.3784 18.7145 14.1692 18.5045C13.9599 18.2945 13.8549 18.0349 13.8542 17.7257C13.8534 17.4165 13.9584 17.1566 14.1692 16.9459C14.3799 16.7351 14.6395 16.6305 14.9479 16.632ZM21.5104 22.1007C21.8203 22.1007 22.0802 22.2057 22.2902 22.4157C22.5002 22.6257 22.6049 22.8853 22.6042 23.1945C22.6034 23.5036 22.4984 23.7632 22.2892 23.9732C22.0799 24.1832 21.8203 24.2882 21.5104 24.2882C21.2005 24.2882 20.9409 24.1832 20.7317 23.9732C20.5224 23.7632 20.4174 23.5036 20.4167 23.1945C20.4159 22.8853 20.5209 22.6253 20.7317 22.4146C20.9424 22.2039 21.202 22.0992 21.5104 22.1007Z" fill="#007BFF"/>
<circle cx="10.6944" cy="24.1667" r="1.94444" fill="#007BFF"/>
<circle cx="15.5556" cy="17.3611" r="1.94444" fill="#007BFF"/>
<circle cx="21.3889" cy="23.1944" r="1.94444" fill="#007BFF"/>
<circle cx="5.83336" cy="13.4722" r="1.94444" fill="#007BFF"/>
<circle cx="13.6111" cy="8.61113" r="1.94444" fill="#007BFF"/>
</g>
<defs>
<clipPath id="clip0_3_2">
<rect width="28" height="32" fill="white"/>
</clipPath>
</defs>
</svg>
